<?xml version="1.0" encoding="utf-8"?>
<!-- Generator: Adobe Illustrator 26.0.0, SVG Export Plug-In . SVG Version: 6.00 Build 0)  -->
<svg version="1.1" id="Layer_1" xmlns="http://www.w3.org/2000/svg" xmlns:xlink="http://www.w3.org/1999/xlink" x="0px" y="0px"
	 viewBox="0 0 250 150" style="enable-background:new 0 0 250 150;" xml:space="preserve">
<style type="text/css">
	.st0{fill:#FFFFFF;stroke:#000000;stroke-miterlimit:10;}
</style>
<path class="st0" d="M177.22,133.89H75.78c-4.4,0-8-3.6-8-8V24.44c0-4.4,3.6-8,8-8h101.45c4.4,0,8,3.6,8,8v101.45
	C185.22,130.29,181.62,133.89,177.22,133.89z"/>
<path class="st0" d="M125.86,106.52h12.51L120.5,42.6h-0.49h-11.97h-0.49l-17.87,63.93h12.51l4.53-16.21h14.6L125.86,106.52z
	 M108.77,83.03l5.26-18.82l5.26,18.82H108.77z"/>
<rect x="145.43" y="58.68" class="st0" width="10.34" height="47.84"/>
<circle class="st0" cx="150.6" cy="48.02" r="7.15"/>
</svg>
