<?xml version="1.0" encoding="utf-8"?>
<!-- Generator: Adobe Illustrator 26.0.0, SVG Export Plug-In . SVG Version: 6.00 Build 0)  -->
<svg version="1.1" id="Layer_1" xmlns="http://www.w3.org/2000/svg" xmlns:xlink="http://www.w3.org/1999/xlink" x="0px" y="0px"
	 viewBox="0 0 250 150" style="enable-background:new 0 0 250 150;" xml:space="preserve">
<style type="text/css">
	.st0{fill:none;}
	.st1{fill:#FFFFFF;stroke:#000000;stroke-miterlimit:10;}
</style>
<path class="st0" d="M181.77,77.77c0-16.68-13.52-30.19-30.19-30.19c-16.68,0-30.19,13.52-30.19,30.19
	c0,16.68,13.52,30.19,30.19,30.19c3.63,0,7.12-0.64,10.34-1.82v-5.72h8.17l0.72,0.62C177.5,95.51,181.77,87.14,181.77,77.77z"/>
<g>
	<path class="st1" d="M37.96,47.9v70.66h16.72V36.98H34.18C38.5,43.11,37.96,47.9,37.96,47.9z"/>
	<path class="st1" d="M190.26,106.04c5.8-7.92,9.24-17.69,9.24-28.26c0-26.47-21.46-47.93-47.93-47.93
		c-9.23,0-17.85,2.62-25.17,7.14H55.64c5.01,4.81,4.79,10.15,4.79,10.15v7.66h5.93c8.09,0,9.58,10.34,9.58,10.34v53.62l20.3-0.19
		v-51.7c0-8.27-6.61-12.45-6.61-12.45h20.1c-3.87,6.91-6.08,14.88-6.08,23.36c0,26.47,21.46,47.93,47.93,47.93
		c3.55,0,7.01-0.4,10.34-1.13v-18.42c-3.23,1.18-6.71,1.82-10.34,1.82c-16.68,0-30.19-13.52-30.19-30.19
		c0-16.68,13.52-30.19,30.19-30.19c16.68,0,30.19,13.52,30.19,30.19c0,7.96-3.09,15.19-8.11,20.58c-7.5-4.22-11.48-7.63-11.48-7.63
		c18.32,44.15,58.47,43.79,58.47,43.79v-21.19C208.87,111.96,198.68,109.19,190.26,106.04z"/>
</g>
</svg>
