<?xml version="1.0" encoding="utf-8"?>
<!-- Generator: Adobe Illustrator 26.0.0, SVG Export Plug-In . SVG Version: 6.00 Build 0)  -->
<svg version="1.1" id="Layer_1" xmlns="http://www.w3.org/2000/svg" xmlns:xlink="http://www.w3.org/1999/xlink" x="0px" y="0px"
	 viewBox="0 0 250 150" style="enable-background:new 0 0 250 150;" xml:space="preserve">
<style type="text/css">
	.st0{fill:#FFFFFF;stroke:#000000;stroke-miterlimit:10;}
	.st1{fill:none;}
</style>
<path class="st0" d="M177.47,137.45H76.02c-4.4,0-8-3.6-8-8V28c0-4.4,3.6-8,8-8h101.45c4.4,0,8,3.6,8,8v101.45
	C185.47,133.85,181.87,137.45,177.47,137.45z"/>
<path class="st1" d="M116.34,65.8c0-5.27-7.49-9.54-16.72-9.54v19.09C108.85,75.34,116.34,71.07,116.34,65.8z"/>
<path class="st1" d="M82.89,65.8c0,1.07,0.32,2.1,0.89,3.06v-6.12C83.22,63.7,82.89,64.73,82.89,65.8z"/>
<path class="st0" d="M99.62,41.45H83.79v2.69v18.6v6.12v15.09v24.39h15.83v-21.7c18.47,0,33.45-10.12,33.45-22.6
	S118.09,41.45,99.62,41.45z M99.62,75.34V56.26c9.24,0,16.72,4.27,16.72,9.54S108.85,75.34,99.62,75.34z"/>
<path class="st0" d="M165.36,68.03c0.84-0.03,1.67,0.06,2.47,0.15v-8.82c-0.81-0.05-1.64-0.08-2.47-0.08
	c-15.02,0-25.52,7.3-25.09,16.95c0.26,5.61,0.89,5.65,2.43,7.84c1.4,1.98,1.79,2.29,3.99,4.66c2.84,2.28,4.88,4,6.41,5.93
	c1.44,6.88-10.04,6.52-16.73,3.6c-0.77-0.33-1.49-0.71-2.17-1.11l-0.24,9.64c13.18,5.16,26.3,2.26,30-6.06
	c1.47-3.8,1.98-6.09,0.16-8.78c0,0-2.12-3.52-4.88-5.97l-3.21-2.85c-2.28-1.96-2.16-1.89-2.92-2.73c-0.92-1.35-0.81-2.68-0.81-4.19
	C152.29,71.38,157.57,68.27,165.36,68.03z"/>
</svg>
