<svg xmlns="http://www.w3.org/2000/svg" width="333.20978pt" height="150.00002pt" viewBox="0 0 333.20977 150.00001"><defs><clipPath id="aE"><path d="M531.726 90.57h6.042v-5.636h-6.042z"/></clipPath><clipPath id="a"><path d="M69.61 328.041h477.038V155.543H69.609Z"/></clipPath><clipPath id="b"><path d="M69.609 328.04H546.65V155.543H69.609Z"/></clipPath><clipPath id="c"><path d="M69.61 178.957H401.06v-39.204H69.609Z"/></clipPath><clipPath id="d"><path d="M-15914.4 16633.698h32142.6v-32003h-32142.6z"/></clipPath><clipPath id="e"><path d="M8.504 8.505h597.741v841.889H8.504Z"/></clipPath><clipPath id="f"><path d="M86.056 561.049h81.437v-82.15H86.056Z"/></clipPath><clipPath id="g"><path d="M86.056 646.93h81.437v-82.15H86.056Z"/></clipPath><clipPath id="i"><path d="M174.863 561.049h81.438v-82.15h-81.438z"/></clipPath><clipPath id="j"><path d="M174.863 646.93h81.438v-82.15h-81.438z"/></clipPath><clipPath id="k"><path d="M174.863 732.873h81.438v-82.15h-81.438z"/></clipPath><clipPath id="l"><path d="M263.67 595.798h81.438V478.899H263.67Z"/></clipPath><clipPath id="m"><path d="M352.478 595.798h81.437V478.899h-81.437z"/></clipPath><clipPath id="n"><path d="M352.478 681.051h81.437v-82.15h-81.437z"/></clipPath><clipPath id="o"><path d="M441.285 720.577h81.44v-69.854h-81.44z"/></clipPath><clipPath id="p"><path d="M441.285 789.775h81.44v-65.221h-81.44z"/></clipPath><clipPath id="q"><path d="M441.285 561.049h81.44v-82.15h-81.44z"/></clipPath><clipPath id="r"><path d="M69.61 388.238H406.05v-39.204H69.609Z"/></clipPath><clipPath id="s"><path d="M-15914.4 16842.898h32142.6v-32212.2h-32142.6Z"/></clipPath><clipPath id="t"><path d="M8.504 8.505h597.741v841.889H8.504Z"/></clipPath><clipPath id="u"><path d="M96.901 460.966h54.067v-54.067H96.902Z"/></clipPath><clipPath id="v"><path d="M96.902 460.966h54.066v-54.067H96.902Z"/></clipPath><clipPath id="w"><path d="M96.902 433.933c0 14.93 12.102 27.033 27.034 27.033 14.929 0 27.032-12.103 27.032-27.033 0-14.93-12.103-27.035-27.032-27.035-14.932 0-27.034 12.105-27.034 27.035"/></clipPath><clipPath id="A"><path d="M98.846 459.021h50.178v-50.177H98.846Z"/></clipPath><clipPath id="B"><path d="M98.846 459.021h50.179v-50.177H98.846Z"/></clipPath><clipPath id="C"><path d="M98.846 433.933c0 13.856 11.234 25.088 25.09 25.088s25.089-11.232 25.089-25.088c0-13.855-11.233-25.089-25.089-25.089-13.856 0-25.09 11.234-25.09 25.089"/></clipPath><clipPath id="G"><path d="M186.081 459.435h52.844V406.59h-52.844z"/></clipPath><clipPath id="H"><path d="M186.081 459.435h52.844V406.59h-52.844z"/></clipPath><clipPath id="I"><path d="M186.08 433.014c0 14.592 11.83 26.421 26.423 26.421 14.593 0 26.422-11.829 26.422-26.421 0-14.593-11.829-26.424-26.422-26.424s-26.423 11.831-26.423 26.424"/></clipPath><clipPath id="M"><path d="M187.981 457.534h49.044v-49.042h-49.044z"/></clipPath><clipPath id="N"><path d="M187.981 457.535h49.044v-49.043h-49.044z"/></clipPath><clipPath id="O"><path d="M187.981 433.014c0 13.542 10.98 24.521 24.523 24.521s24.521-10.979 24.521-24.521c0-13.543-10.978-24.522-24.521-24.522-13.543 0-24.523 10.979-24.523 24.522"/></clipPath><clipPath id="T"><path d="M274.513 459.435h52.845V406.59h-52.845z"/></clipPath><clipPath id="U"><path d="M274.514 459.435h52.844V406.59h-52.844z"/></clipPath><clipPath id="V"><path d="M274.513 433.014c0 14.592 11.83 26.421 26.424 26.421 14.592 0 26.421-11.829 26.421-26.421 0-14.593-11.829-26.424-26.421-26.424-14.594 0-26.424 11.831-26.424 26.424"/></clipPath><clipPath id="Z"><path d="M276.414 457.534h49.044v-49.042h-49.044z"/></clipPath><clipPath id="aa"><path d="M276.415 457.535h49.043v-49.043h-49.043z"/></clipPath><clipPath id="ab"><path d="M276.414 433.014c0 13.542 10.98 24.521 24.524 24.521 13.542 0 24.52-10.979 24.52-24.521 0-13.543-10.978-24.522-24.52-24.522-13.544 0-24.524 10.979-24.524 24.522"/></clipPath><clipPath id="af"><path d="M364.967 459.307h52.844v-52.845h-52.844z"/></clipPath><clipPath id="ag"><path d="M364.967 459.307h52.844v-52.845h-52.844z"/></clipPath><clipPath id="ah"><path d="M364.967 432.886c0 14.592 11.83 26.421 26.423 26.421 14.592 0 26.421-11.829 26.421-26.421 0-14.593-11.829-26.423-26.421-26.423-14.593 0-26.423 11.83-26.423 26.423"/></clipPath><clipPath id="al"><path d="M366.867 457.406h49.045v-49.042h-49.045z"/></clipPath><clipPath id="am"><path d="M366.867 457.407h49.044v-49.043h-49.044z"/></clipPath><clipPath id="an"><path d="M366.868 432.886c0 13.542 10.98 24.521 24.523 24.521 13.541 0 24.52-10.979 24.52-24.521 0-13.543-10.979-24.522-24.52-24.522-13.543 0-24.523 10.979-24.523 24.522"/></clipPath><clipPath id="ar"><path d="M452.97 459.435h52.845V406.59H452.97Z"/></clipPath><clipPath id="as"><path d="M452.97 459.435h52.844V406.59H452.97Z"/></clipPath><clipPath id="at"><path d="M452.97 433.014c0 14.592 11.83 26.421 26.423 26.421 14.593 0 26.421-11.829 26.421-26.421 0-14.593-11.828-26.424-26.421-26.424s-26.423 11.831-26.423 26.424"/></clipPath><clipPath id="ax"><path d="M454.871 457.534h49.044v-49.042h-49.044z"/></clipPath><clipPath id="ay"><path d="M454.871 457.535h49.044v-49.043h-49.044z"/></clipPath><clipPath id="az"><path d="M454.871 433.014c0 13.542 10.98 24.521 24.523 24.521 13.542 0 24.521-10.979 24.521-24.521 0-13.543-10.979-24.522-24.521-24.522-13.543 0-24.523 10.979-24.523 24.522"/></clipPath><clipPath id="aD"><path d="M441.285 646.93h81.44v-82.15h-81.44z"/></clipPath><mask id="z"><clipPath id="x"><path d="M-6399.52 1961.588h9283.06v-9283.1h-9283.06z"/></clipPath><g clip-path="url(#x)"><clipPath id="y"><path d="M8.504 850.394Z"/></clipPath></g>&quot;/&gt;</mask><mask id="F"><clipPath id="D"><path d="M-6399.52 1961.588h9283.06v-9283.1h-9283.06z"/></clipPath><g clip-path="url(#D)"><clipPath id="E"><path d="M8.504 850.394Z"/></clipPath></g>&quot;/&gt;</mask><mask id="L"><clipPath id="J"><path d="M-6163.5 1926.128h9073.22v-9073.2H-6163.5Z"/></clipPath><g clip-path="url(#J)"><clipPath id="K"><path d="M8.504 850.394Z"/></clipPath></g>&quot;/&gt;</mask><mask id="R"><clipPath id="P"><path d="M-6163.5 1926.128h9073.22v-9073.2H-6163.5Z"/></clipPath><g clip-path="url(#P)"><clipPath id="Q"><path d="M8.504 850.394Z"/></clipPath></g>&quot;/&gt;</mask><mask id="Y"><clipPath id="W"><path d="M-6075.04 1926.128h9073.19v-9073.2h-9073.19z"/></clipPath><g clip-path="url(#W)"><clipPath id="X"><path d="M8.504 850.394Z"/></clipPath></g>&quot;/&gt;</mask><mask id="ae"><clipPath id="ac"><path d="M-6075.04 1926.128h9073.19v-9073.2h-9073.19z"/></clipPath><g clip-path="url(#ac)"><clipPath id="ad"><path d="M8.504 850.394Z"/></clipPath></g>&quot;/&gt;</mask><mask id="ak"><clipPath id="ai"><path d="M-5984.61 1926.008h9073.22v-9073.23h-9073.22Z"/></clipPath><g clip-path="url(#ai)"><clipPath id="aj"><path d="M8.504 850.394Z"/></clipPath></g>&quot;/&gt;</mask><mask id="aq"><clipPath id="ao"><path d="M-5984.61 1926.008h9073.22v-9073.23h-9073.22Z"/></clipPath><g clip-path="url(#ao)"><clipPath id="ap"><path d="M8.504 850.394Z"/></clipPath></g>&quot;/&gt;</mask><mask id="aw"><clipPath id="au"><path d="M-5896.6 1926.128h9073.21v-9073.2H-5896.6Z"/></clipPath><g clip-path="url(#au)"><clipPath id="av"><path d="M8.504 850.394Z"/></clipPath></g>&quot;/&gt;</mask><mask id="aC"><clipPath id="aA"><path d="M-5896.6 1926.128h9073.21v-9073.2H-5896.6Z"/></clipPath><g clip-path="url(#aA)"><clipPath id="aB"><path d="M8.504 850.394Z"/></clipPath></g>&quot;/&gt;</mask><image id="h" width="457" height="461"/><image id="S" width="368" height="368"/></defs><g clip-path="url(#aE)" transform="translate(-104.9 -694.266)"><path fill="#808285" d="M559.583 88.125c0 .112-.048.245-.273.245h-.395c-.228 0-.275-.133-.275-.245 0-.153.102-.245.275-.245h.395c.17 0 .273.092.273.245m-.234-.518h-.476c-.33 0-.56.214-.56.518 0 .31.225.518.56.518h.476c.343 0 .557-.2.557-.518 0-.31-.224-.518-.557-.518M559.586 87.626l.323-.117v-1.502h-.323ZM561.322 86.889v-.515h.518v-.27h-1.353v.27h.515v.515a.216.216 0 0 1-.033.129c-.14.183-.377.472-.577.685l-.02.023.223.197.02-.022c.232-.25.385-.426.561-.641l.613.62.202-.2-.644-.673c-.025-.027-.025-.075-.025-.118M562.385 86.007h-.322v2.592l.322-.127v-1.438h.364v-.27h-.364ZM563.385 87.882h1.244v.771h.323v-1.038h-1.567ZM564.027 86.869a.44.44 0 0 0 .113-.278h.489v.292h-.614l.012-.014m.601-.863v.312h-.477c.002-.094.002-.18.002-.222v-.031h-1.138v.267h.815c0 .115-.004.216-.01.273a.158.158 0 0 1-.032.07c-.095.13-.498.46-.798.653l-.036.024.246.189.018-.012c.29-.19.623-.458.782-.63v.257h.629v.414l.323-.138v-1.426z"/><path fill="#231f20" d="M544.829 88.419h2.272v-.393h-2.272ZM546.229 87.258h-.527v-.741h.527zm.482-.74h.238v-.387h-1.967v.387h.237v.74h-.246v.387h1.985v-.387h-.247zM548.123 87.753h-.503v.603c0 .06.165.22.227.22h1.737v-.393h-1.461ZM549.031 87.397v.467h.494v-1.832h-.494v1.058l-.012.007c-.167.088-.388.088-.583.088h-.499v-.183h.84v-.91h-1.348v.37h.84v.182h-.84v.91h.937c.321 0 .526-.041.627-.126zM551.053 88.294c-.317 0-.513-.031-.513-.182 0-.154.205-.185.513-.185.31 0 .516.031.516.185 0 .151-.197.182-.516.182m0-.734c-.7 0-1.013.17-1.013.552 0 .38.313.549 1.013.549.702 0 1.016-.169 1.016-.549 0-.382-.314-.552-1.016-.552M551.528 87.249v.223h.494v-1.44h-.494v.95l-.012.006c-.167.088-.388.088-.583.088h-.513v-.171h.783v-.321h-.783v-.168h.842v-.333h-1.336v1.323h.936c.322 0 .527-.041.628-.125zM541.39 86.622a.948.948 0 0 0-.097-.241.66.66 0 0 0-.149-.18.29.29 0 0 0-.187-.07h-1.867v.62h1.603c.018 0 .045.008.068.039a.128.128 0 0 1 .026.078.12.12 0 0 1-.019.054.232.232 0 0 1-.057.063l-.007.005h-.937l.002.607h.937l.007.007c.013.013.026.03.04.052a.114.114 0 0 1 .023.06.144.144 0 0 1-.019.075.073.073 0 0 1-.064.037h-1.607v.622h1.871a.294.294 0 0 0 .187-.07.623.623 0 0 0 .15-.177 1.012 1.012 0 0 0 .105-.713.391.391 0 0 0-.103-.182l-.012-.014.011-.015a.69.69 0 0 0 .127-.411c0-.076-.01-.16-.033-.246M543.957 86.372a.671.671 0 0 0-.154-.174.311.311 0 0 0-.197-.067h-1.849v.607h1.606c.055 0 .063.033.064.048.001.018.004.045.01.083v.883a.22.22 0 0 1-.006.055c-.005.016-.02.036-.067.036h-.95v-.856h-.657v1.463h1.848a.311.311 0 0 0 .197-.067.671.671 0 0 0 .155-.174.965.965 0 0 0 .136-.493v-.848a.984.984 0 0 0-.135-.496"/><path fill="#808285" d="M539.16 89.808h.1c0 .042.033.076.075.076a.075.075 0 0 0 .074-.076.074.074 0 0 0-.064-.074l-.014-.001v-.1l.014-.001a.074.074 0 0 0 .064-.074.075.075 0 0 0-.15 0h-.1a.176.176 0 1 1 .3.125.175.175 0 1 1-.299.125M540.092 89.683c0-.2-.25-.2-.25-.2v.4s.25 0 .25-.2m.1 0c0 .3-.35.3-.35.3h-.102v-.6h.101s.351 0 .351.3M541.056 89.558c0-.076-.101-.076-.101-.076h-.101v.152h.1s.102 0 .102-.076m.1 0c0 .177-.201.177-.201.177h-.101v.251h-.1v-.605h.2s.203 0 .203.177M541.452 89.633h.1s.1 0 .1-.076c0-.075-.1-.075-.1-.075h-.1Zm.082.1h-.082v.25h-.1v-.601h.2s.2 0 .2.175c0 .098-.06.14-.115.16l.123.267h-.111ZM541.954 89.381h.1v.602h-.1zM542.65 89.984l-.3-.429v.43h-.102v-.604h.102l.301.43v-.43h.1v.603ZM543.383 89.482h-.151v.502h-.1v-.502h-.151v-.1h.402ZM543.576 89.381h.101v.602h-.101zM544.272 89.984l-.3-.429v.43h-.1v-.604h.101l.301.43v-.43h.1v.603ZM545.102 89.633v.35h-.1v-.04a.301.301 0 1 1 .062-.473l-.07.07a.2.2 0 1 0-.143.342.198.198 0 0 0 .15-.066v-.083h-.175v-.1ZM546.317 89.984h-.101v-.37l-.173.37h-.095l-.184-.378v.378h-.1v-.604h.102l.229.47.219-.47h.103ZM547.124 89.683a.2.2 0 1 0-.402 0 .2.2 0 0 0 .402 0m.1 0a.301.301 0 1 1-.602 0 .301.301 0 0 1 .603 0M547.806 89.683c0-.2-.25-.2-.25-.2v.4s.25 0 .25-.2m.1 0c0 .3-.35.3-.35.3h-.1v-.6h.1s.35 0 .35.3M548.217 89.482v.151h.3v.1h-.3v.15h.3v.101h-.4v-.603h.4v.101ZM549.052 89.883v.101h-.324v-.603h.101v.502ZM549.277 89.381h.101v.602h-.101zM549.972 89.984l-.3-.429v.43h-.1v-.604h.101l.301.43v-.43h.1v.603ZM550.803 89.633v.35h-.101v-.04a.302.302 0 1 1-.15-.562c.083 0 .158.034.212.09l-.07.07a.2.2 0 1 0-.142.342c.06 0 .112-.025.15-.067v-.083h-.175v-.1ZM551.667 89.809l-.063-.156-.062.156Zm.04.1h-.204l-.031.076h-.108l.24-.603.24.603h-.107ZM552.416 89.984l-.3-.429v.43h-.101v-.604h.102l.3.43v-.43h.1v.603ZM553.098 89.683c0-.2-.25-.2-.25-.2v.4s.25 0 .25-.2m.1 0c0 .3-.35.3-.35.3h-.101v-.6h.102s.35 0 .35.3M554.111 89.683c0-.2-.251-.2-.251-.2v.4s.251 0 .251-.2m.1 0c0 .3-.351.3-.351.3h-.101v-.6h.101s.351 0 .351.3M554.521 89.482v.151h.302v.1h-.302v.15h.302v.101h-.403v-.603h.403v.101ZM555.033 89.809h.1c.002.05.044.075.089.075.046 0 .087-.027.087-.075 0-.051-.047-.074-.087-.076-.005 0-.047 0-.091-.02a.164.164 0 0 1-.098-.155c0-.107.09-.176.189-.176.104 0 .186.073.187.176h-.1c-.001-.05-.042-.075-.087-.075-.048 0-.088.026-.088.075 0 .05.043.075.088.075.004 0 .046 0 .089.02a.162.162 0 0 1 .098.156c0 .107-.09.176-.187.176-.105-.003-.188-.071-.19-.176M555.603 89.381h.101v.602h-.101ZM556.439 89.633v.35h-.1v-.04a.302.302 0 1 1-.151-.562c.083 0 .158.034.212.09l-.07.07a.2.2 0 1 0-.142.342c.06 0 .113-.025.151-.067v-.083h-.176v-.1ZM557.05 89.984l-.3-.429v.43h-.102v-.604h.102l.301.43v-.43h.1v.603ZM558.137 89.855l-.064-.064.07-.07.065.063a.201.201 0 1 0-.071.071m.137.137-.065-.064a.302.302 0 1 1 .07-.07l.065.063zM558.568 89.856a.305.305 0 0 1-.03-.123v-.352h.1v.352s0 .041.02.081c.026.046.068.07.13.07.064 0 .106-.024.13-.07.02-.04.02-.08.02-.08v-.353h.102v.352a.305.305 0 0 1-.03.123.233.233 0 0 1-.221.128c-.101 0-.18-.045-.221-.128M559.57 89.809l-.064-.156-.062.156Zm.04.1h-.205l-.03.076h-.109l.24-.603.241.603h-.108ZM560.301 89.883v.101h-.324v-.603h.101v.502ZM560.526 89.381h.101v.602h-.101zM560.957 89.482v.151h.301v.1h-.301v.251h-.101v-.603h.402v.101ZM561.468 89.381h.1v.602h-.1zM562.181 89.825l.071.07a.302.302 0 1 1-.213-.515c.084 0 .158.035.213.09l-.07.07a.201.201 0 0 0-.343.142.201.201 0 0 0 .343.142M562.765 89.809l-.063-.156-.062.156Zm.04.1h-.204l-.031.076h-.108l.24-.603.241.603h-.108ZM563.396 89.482h-.151v.502h-.1v-.502h-.151v-.1h.402ZM563.59 89.381h.1v.602h-.1zM564.421 89.683a.2.2 0 1 0-.402 0 .2.2 0 0 0 .402 0m.101 0a.301.301 0 1 1-.602 0 .301.301 0 0 1 .602 0M565.153 89.984l-.299-.429v.43h-.102v-.604h.102l.301.43v-.43h.1v.603Z"/></g><path fill="#d1d3d4" d="M64.182 27.834c-.123 7.02-5.934 12.614-12.998 12.49-7.047-.122-12.658-5.912-12.535-12.931.111-7.02 5.93-12.608 12.987-12.49 7.053.123 12.675 5.907 12.546 12.931" style="stroke-width:5.58848"/><path fill="#f7941d" d="M60.934 27.837c-.084 5.13-4.331 9.21-9.495 9.132-5.152-.095-9.254-4.32-9.16-9.445.084-5.13 4.32-9.22 9.49-9.126 5.158.079 9.254 4.303 9.165 9.44" style="stroke-width:5.58848"/><path fill="#d1d3d4" d="M81.32 57.314c.112-7.02-5.498-12.804-12.562-12.927-7.042-.117-12.86 5.466-12.993 12.49-.028.95.072 1.878.262 2.784.1 1.615.112 6.538-3.202 10.17-1.201 1.102-2.37.297-2.945-.268-1.945-2.173-3.638-5.348-3.325-9.684.207-.85.313-1.727.335-2.638.117-7.02-5.499-12.803-12.563-12.926-7.036-.123-12.859 5.47-12.987 12.484-.018.878.067 1.75.223 2.582.062 1.777-.039 10.618-7.941 13.496-5.566 1.291-9.74 6.21-9.841 12.15-.135 7.019 5.488 12.814 12.535 12.931 7.069.124 12.887-5.465 13.01-12.49.005-.76-.05-1.514-.163-2.246l.013.012s-.766-5.728 2.89-10.137c.541-.52 1.804-1.47 3.162-.543 1.979 2.096 3.728 5.282 3.303 9.88a13.642 13.642 0 0 0-.335 2.672c-.118 7.03 5.493 12.803 12.557 12.932 7.058.123 12.865-5.471 13.004-12.49.005-.934-.078-1.85-.257-2.722l.028.012s-.62-9.293 8.908-13.585l-.039-.028c5.08-1.604 8.819-6.293 8.925-11.91" style="stroke-width:5.58848"/><path fill="#0066b3" d="M68.912 47.871c-5.158-.078-9.411 4.007-9.512 9.138-.044 2.716 1.101 5.175 2.923 6.901l-7.947 12.826a9.443 9.443 0 0 0-3.297-.66 9.782 9.782 0 0 0-3.18.492l-7.432-12.512a9.178 9.178 0 0 0 3.168-6.807c.1-5.136-3.995-9.36-9.16-9.445-5.146-.095-9.421 3.996-9.494 9.126a9.176 9.176 0 0 0 2.923 6.902L19.95 76.67a9.249 9.249 0 0 0-3.297-.665c-5.152-.09-9.41 4.001-9.5 9.12-.095 5.13 4.03 9.366 9.17 9.456 5.164.084 9.411-3.996 9.495-9.132a9.214 9.214 0 0 0-2.945-6.94l7.947-12.815a9.134 9.134 0 0 0 3.33.687 9.343 9.343 0 0 0 3.354-.57l7.393 12.463c-1.984 1.676-3.263 4.146-3.308 6.94-.095 5.125 4.012 9.356 9.16 9.44 5.158.089 9.422-3.99 9.505-9.12a9.256 9.256 0 0 0-2.967-6.947l7.941-12.815a9.43 9.43 0 0 0 3.348.67c5.163.096 9.405-3.99 9.5-9.12.084-5.13-4.001-9.36-9.165-9.45" style="stroke-width:5.58848"/><path fill="#231f20" d="M22.63 125.568v.867h7.421l-5.677 12.026h4.012l6.56-14.413H21.558s.967.235 1.073 1.52M40.322 124.054H35.54s.989.251 1.073 1.581v17.57h3.71v-10.73h3.17v-2.436h-3.17zM19.52 124.007H.996s.855.207 1.045 1.32v1.1h12.915l-1.073 3.571H0s.855.196 1.056 1.308v1.107h7.645v3.012H1.403s.665.324.665 1.14v1.285h13.87v5.332h3.711v-7.757h-7.231v-3.012h8.002v-2.415h-2.582zM80.316 124.054s.989.251 1.078 1.581v15.022H71.86v-4.437h-4.789s.978.229 1.062 1.57v5.293H85.1v-19.03zM55.065 142.535c-1.867 0-3.381-1.8-3.381-4.013 0-2.224 1.514-4.018 3.38-4.018 1.867 0 3.376 1.794 3.376 4.018 0 2.213-1.509 4.013-3.375 4.013m8.707-18.46H45.246s.85.202 1.056 1.314v1.107h12.91l-.928 5.454H55.22v-3.225H51.5v3.225h-7.186s.86.201 1.056 1.319v1.1h4.068c-1.045 1.13-1.693 2.588-1.693 4.17 0 3.588 3.258 6.505 7.26 6.505 4.023 0 7.264-2.917 7.264-6.505 0-1.582-.631-3.04-1.67-4.17h4.135v-2.419h-2.476z" style="stroke-width:5.58848"/><path fill="#231f20" d="M73.22 125.633c1.71 0 3.101 1.766 3.101 3.918 0 2.174-1.391 3.917-3.101 3.917s-3.108-1.743-3.108-3.917c0-2.152 1.398-3.918 3.108-3.918m-.18 10.317c3.639 0 6.584-2.811 6.584-6.26 0-3.464-2.945-6.264-6.583-6.264-3.633 0-6.572 2.8-6.572 6.265 0 3.448 2.94 6.259 6.572 6.259" style="stroke-width:5.58848"/><path fill="#808285" d="M94.496 104.937v8.573h5.186v-1.034H95.53V109.3h4.152v-1.006H95.53v-2.358h4.152v-1z" style="stroke-width:5.58848"/><path fill="none" stroke="#808285" stroke-width="0.519727" d="M99.682 113.507h-5.187v-8.567h5.187v.994h-4.153v2.359h4.153v1.011h-4.153v3.174h4.153z"/><path fill="#808285" d="M106.992 113.507h-1.017v-3.683c0-.285 0-.57-.034-.833a2.291 2.291 0 0 0-.162-.598.863.863 0 0 0-.391-.357 1.521 1.521 0 0 0-.648-.123c-.269 0-.57.072-.861.223-.268.134-.581.33-.85.57v4.8h-.994v-6.448h.995v.715c.318-.263.637-.503.95-.643a2.407 2.407 0 0 1 1.033-.246c.649 0 1.135.224 1.47.626.324.43.509 1.029.509 1.817z" style="stroke-width:5.58848"/><path fill="none" stroke="#808285" stroke-width="0.519727" d="M106.992 113.507h-1.017v-3.683c0-.285 0-.57-.034-.833a2.291 2.291 0 0 0-.162-.598.863.863 0 0 0-.391-.357 1.521 1.521 0 0 0-.648-.123c-.269 0-.57.072-.861.223-.268.134-.581.33-.85.57v4.8h-.994v-6.448h.995v.715c.318-.263.637-.503.95-.643a2.407 2.407 0 0 1 1.033-.246c.649 0 1.135.224 1.47.626.324.43.509 1.029.509 1.817z"/><path fill="#808285" d="M112.745 113.434c-.179.044-.385.095-.626.14a5.635 5.635 0 0 1-.592.044c-.587 0-1.05-.184-1.375-.52-.29-.357-.458-.933-.458-1.693v-3.42h-.682v-.928h.682v-1.844h.989v1.844h2.062v.928h-2.062v2.917c0 .33.022.598.022.794.022.184.067.368.168.52a.702.702 0 0 0 .307.357c.14.067.347.095.626.095.162 0 .313-.028.503-.073.19-.044.302-.095.391-.145h.045z" style="stroke-width:5.58848"/><path fill="none" stroke="#808285" stroke-width="0.519727" d="M112.745 113.434c-.179.044-.385.095-.626.14a5.635 5.635 0 0 1-.592.044c-.587 0-1.05-.184-1.375-.52-.29-.357-.458-.933-.458-1.693v-3.42h-.682v-.928h.682v-1.844h.989v1.844h2.062v.928h-2.062v2.917c0 .33.022.598.022.794.022.184.067.368.168.52a.702.702 0 0 0 .307.357c.14.067.347.095.626.095.162 0 .313-.028.503-.073.19-.044.302-.095.391-.145h.045z"/><path fill="#808285" d="M117.008 110.397h-1.694c0 .386.045.743.168 1.028.1.29.24.531.425.71a1.722 1.722 0 0 0 1.1.531v.956c-.799-.067-1.424-.364-1.9-.839-.547-.592-.827-1.408-.827-2.459 0-1.045.28-1.883.81-2.503.493-.57 1.118-.889 1.918-.934v.883a1.686 1.686 0 0 0-1.168.52c-.319.341-.498.766-.526 1.274h1.694zm0 2.269c.111.028.257.028.39.028.414 0 .833-.073 1.219-.263.402-.162.704-.335.872-.503h.061v1.174a6.591 6.591 0 0 1-1.034.38c-.34.117-.704.162-1.095.162-.134 0-.302 0-.413-.022zm2.665-2.27h-2.665v-.832h1.698c-.022-.57-.134-1.006-.413-1.319-.252-.307-.643-.475-1.174-.475h-.111v-.883h.162c.793 0 1.425.257 1.827.766.442.503.676 1.218.676 2.146z" style="stroke-width:5.58848"/><path fill="none" stroke="#808285" stroke-width="0.519727" d="M119.673 110.397h-2.665v-.833h1.698c-.022-.57-.14-1.006-.413-1.319-.252-.307-.643-.475-1.174-.475h-.111v-.883h.162c.793 0 1.425.257 1.827.766.442.503.676 1.218.676 2.146zm-2.665 2.269c.111.028.251.028.39.028.414 0 .833-.073 1.219-.263.408-.168.704-.335.866-.503h.067v1.174c-.335.156-.693.28-1.028.38-.341.117-.71.162-1.095.162-.14 0-.308 0-.42-.022zm0-2.27h-1.694c0 .387.045.744.168 1.03.1.29.24.53.43.709.173.201.42.34.665.436.134.05.269.072.43.095v.956c-.799-.067-1.424-.364-1.9-.839-.547-.592-.827-1.408-.827-2.459 0-1.045.28-1.883.81-2.503.493-.57 1.118-.889 1.918-.934v.883c-.481.023-.867.213-1.168.52-.319.341-.498.766-.526 1.274h1.694z"/><path fill="#808285" d="M125.627 108.252h-.04a4.953 4.953 0 0 0-.435-.095c-.134 0-.308-.022-.509-.022a1.67 1.67 0 0 0-.866.234c-.302.146-.576.341-.827.554v4.582h-1.017v-6.449h1.017v.956c.385-.336.732-.593 1.034-.738.296-.14.62-.218.933-.218.168 0 .302.028.363.028.073 0 .196.022.347.05z" style="stroke-width:5.58848"/><path fill="none" stroke="#808285" stroke-width="0.519727" d="M125.627 108.252h-.04a4.953 4.953 0 0 0-.435-.095c-.134 0-.308-.022-.509-.022a1.67 1.67 0 0 0-.866.234c-.302.146-.576.341-.827.554v4.582h-1.017v-6.449h1.017v.956c.385-.336.732-.593 1.034-.738.296-.14.62-.218.933-.218.168 0 .302.028.363.028.073 0 .196.022.347.05z"/><path fill="#808285" d="M129.923 113.621c-.296 0-.576-.044-.833-.117a3.089 3.089 0 0 1-.754-.34v2.71h-1.012v-8.82h1.012v.688c.251-.251.559-.452.894-.609.23-.1.464-.168.693-.223v1c-.263.022-.503.1-.754.223-.274.118-.554.308-.833.52v3.633c.28.145.53.24.743.285.207.05.43.072.676.072h.168zm2.632-3.409c0 .52-.067.978-.2 1.431-.14.425-.353.788-.599 1.073-.229.285-.503.525-.827.665-.302.179-.637.24-.99.24h-.016v-.978c.48-.044.843-.24 1.145-.592.296-.43.459-1.028.459-1.822 0-.788-.112-1.358-.375-1.738-.246-.385-.615-.581-1.112-.581h-.117v-1c.14-.023.251-.023.368-.023.71 0 1.258.285 1.671.889.392.57.593 1.38.593 2.437" style="stroke-width:5.58848"/><path fill="none" stroke="#808285" stroke-width="0.519727" d="M132.557 110.213c0 .52-.067.978-.207 1.43a3.145 3.145 0 0 1-.592 1.074 2.222 2.222 0 0 1-.833.665c-.296.173-.631.24-.984.24h-.017v-.978c.48-.045.844-.24 1.146-.592.296-.436.458-1.029.458-1.822 0-.788-.112-1.358-.374-1.738-.252-.386-.615-.581-1.112-.581h-.118v-1c.134-.018.252-.018.369-.018.704 0 1.252.28 1.671.877.386.576.592 1.386.592 2.443m-2.632 3.409c-.302 0-.575-.045-.832-.112a3.587 3.587 0 0 1-.755-.341v2.705h-1.011v-8.819h1.011v.688c.252-.257.559-.447.894-.61.23-.1.464-.167.693-.223v1.006a2.079 2.079 0 0 0-.754.218c-.274.117-.554.307-.833.52v3.632c.28.145.531.24.743.285.201.05.425.073.677.073h.167z"/><path fill="#808285" d="M138.564 108.252h-.045a4.634 4.634 0 0 0-.441-.095c-.14 0-.319-.022-.509-.022-.29 0-.592.072-.883.234-.28.146-.559.341-.832.554v4.582h-.978v-6.449h.978v.956c.419-.336.76-.593 1.056-.738.29-.14.609-.218.927-.218.174 0 .291.028.375.028.072 0 .184.022.352.05z" style="stroke-width:5.58848"/><path fill="none" stroke="#808285" stroke-width="0.519727" d="M138.564 108.252h-.045a4.634 4.634 0 0 0-.441-.095c-.14 0-.319-.022-.509-.022-.29 0-.592.072-.883.234-.28.146-.559.341-.832.554v4.582h-.978v-6.449h.978v.956c.419-.336.76-.593 1.056-.738.29-.14.609-.218.927-.218.174 0 .291.028.375.028.072 0 .184.022.352.05z"/><path fill="#808285" d="M140.213 105.978h1.123v-1.123h-1.123zm.062 7.528h.995v-6.455h-.995z" style="stroke-width:5.58848"/><path fill="none" stroke="#808285" stroke-width="0.519727" d="M141.335 105.982h-1.123v-1.123h1.123zm-.061 7.522h-.995v-6.444h.995z"/><path fill="#808285" d="M148.243 111.643c0 .57-.235 1.079-.665 1.43-.464.386-1.056.576-1.838.576-.436 0-.85-.05-1.219-.162-.369-.128-.665-.246-.916-.391v-1.19h.044c.325.234.665.452 1.057.592.39.173.76.246 1.106.246.458 0 .771-.073 1.034-.246.252-.14.363-.38.363-.715 0-.257-.05-.447-.184-.57-.146-.146-.397-.24-.783-.336-.134-.05-.318-.067-.553-.111-.223-.056-.43-.1-.62-.168-.514-.151-.883-.369-1.123-.654-.202-.285-.313-.637-.313-1.073 0-.257.044-.525.156-.738.09-.24.263-.452.458-.642.185-.173.442-.313.76-.408a2.765 2.765 0 0 1 1.012-.168c.357 0 .704.05 1.078.145.364.09.665.213.911.336v1.168h-.067a3.032 3.032 0 0 0-.916-.526 2.845 2.845 0 0 0-1.073-.212c-.369 0-.67.067-.922.229a.751.751 0 0 0-.38.676c0 .263.078.453.24.592.14.14.391.24.704.336.19.05.397.095.632.14.218.022.402.072.57.122.452.123.816.308 1.045.598.262.29.402.643.402 1.124" style="stroke-width:5.58848"/><path fill="none" stroke="#808285" stroke-width="0.519727" d="M148.243 111.643c0 .57-.235 1.079-.665 1.43-.464.386-1.056.576-1.838.576-.436 0-.85-.05-1.219-.162-.369-.128-.665-.246-.916-.391v-1.19h.044c.325.234.665.452 1.057.592.39.173.76.246 1.106.246.458 0 .771-.073 1.034-.246.252-.14.363-.38.363-.715 0-.257-.05-.447-.184-.57-.146-.146-.397-.24-.783-.336-.134-.05-.318-.067-.553-.111-.223-.056-.43-.1-.62-.168-.514-.151-.883-.369-1.123-.654-.202-.285-.313-.637-.313-1.073 0-.257.044-.525.156-.738.09-.24.263-.452.458-.642.185-.173.442-.313.76-.408a2.765 2.765 0 0 1 1.012-.168c.357 0 .704.05 1.078.145.364.09.665.213.911.336v1.168h-.067a3.032 3.032 0 0 0-.916-.526 2.845 2.845 0 0 0-1.073-.212c-.369 0-.67.067-.922.229a.751.751 0 0 0-.38.676c0 .263.078.453.24.592.14.14.391.24.704.336.19.05.397.095.632.14.218.022.402.072.57.122.452.123.816.308 1.045.598.262.29.402.643.402 1.124"/><path fill="#808285" d="M152.707 110.397h-1.687c0 .386.061.743.178 1.028.084.29.246.531.425.71.19.201.43.34.665.436.145.05.285.072.42.095v.956c-.772-.067-1.398-.364-1.873-.839-.559-.592-.838-1.408-.838-2.459 0-1.045.28-1.883.805-2.503.48-.57 1.134-.889 1.905-.934v.883c-.48.023-.844.213-1.145.52a2.04 2.04 0 0 0-.542 1.274h1.687zm0 2.269c.14.028.274.028.42.028.413 0 .799-.073 1.218-.263.402-.162.698-.335.86-.503h.073v1.174a7.271 7.271 0 0 1-1.034.38 3.576 3.576 0 0 1-1.1.162c-.163 0-.297 0-.437-.022zm2.683-2.27h-2.683v-.832h1.694c0-.57-.135-1.006-.386-1.319-.252-.307-.67-.475-1.185-.475h-.123v-.883h.185c.799 0 1.397.257 1.833.766.441.503.665 1.218.665 2.146z" style="stroke-width:5.58848"/><path fill="none" stroke="#808285" stroke-width="0.519727" d="M155.386 110.397h-2.682v-.833h1.699c0-.57-.134-1.006-.391-1.319-.246-.307-.665-.475-1.18-.475h-.128v-.883h.19c.8 0 1.391.257 1.827.766.442.503.665 1.218.665 2.146zm-2.682 2.269c.14.028.28.028.419.028a2.82 2.82 0 0 0 1.218-.263c.408-.168.71-.335.867-.503h.067v1.174c-.347.156-.688.28-1.029.38a3.601 3.601 0 0 1-1.1.162c-.163 0-.302 0-.442-.022zm0-2.27h-1.688c0 .387.067.744.179 1.03.09.29.246.53.43.709.185.201.43.34.671.436.14.05.274.072.408.095v.956c-.771-.067-1.397-.364-1.872-.839-.56-.592-.833-1.408-.833-2.459 0-1.045.274-1.883.805-2.503.48-.57 1.129-.889 1.9-.934v.883a1.63 1.63 0 0 0-1.14.52c-.324.341-.497.766-.548 1.274h1.688z"/><path fill="#808285" d="m163.35 110.14-.05-.045h-1.475v3.409h-1.045v-8.573H163.35v.984H161.825v3.213h1.062c.162 0 .324 0 .463-.028zm3.968 3.364h-1.352l-2.616-3.364v-1.04c.157 0 .291-.012.403-.061.257-.045.458-.168.654-.358a1.39 1.39 0 0 0 .346-.548c.084-.223.1-.48.1-.788 0-.24-.038-.486-.1-.67-.072-.196-.218-.335-.402-.48-.157-.096-.341-.196-.542-.213a1.415 1.415 0 0 0-.459-.067v-.984c.319.022.615.045.844.095.319.073.598.185.844.358.302.19.531.458.699.738.145.29.229.67.229 1.129 0 .62-.14 1.14-.442 1.548-.274.43-.67.737-1.173.955z" style="stroke-width:5.58848"/><path fill="none" stroke="#808285" stroke-width="0.519727" d="M167.322 113.507h-1.358l-2.61-3.365v-1.039c.156 0 .29-.012.402-.061.252-.05.458-.168.648-.364.157-.14.274-.33.353-.542.083-.223.1-.48.1-.788 0-.24-.039-.486-.1-.67-.079-.202-.218-.336-.403-.481a1.313 1.313 0 0 0-.547-.218 1.38 1.38 0 0 0-.453-.067v-.978c.318.017.615.04.844.09.318.072.598.19.844.363.301.19.53.452.693.732.15.29.229.67.229 1.129 0 .62-.14 1.145-.442 1.553-.274.425-.665.738-1.168.95zm-3.968-3.365-.05-.05h-1.476v3.415h-1.05v-8.573h2.576v.978h-1.526v3.219h1.062c.156 0 .318 0 .464-.022z"/><path fill="#808285" d="M171.05 110.397h-1.7c0 .386.05.743.168 1.028.106.29.246.531.447.71.19.201.391.34.648.436.14.05.274.072.436.095v.956c-.782-.067-1.425-.364-1.877-.839-.554-.592-.833-1.408-.833-2.459 0-1.045.257-1.883.782-2.503a2.684 2.684 0 0 1 1.928-.934v.883a1.708 1.708 0 0 0-1.168.52c-.296.341-.48.766-.53 1.274h1.698zm0 2.269c.133.028.273.028.407.028.403 0 .81-.073 1.224-.263.408-.162.687-.335.872-.503h.045v1.174a6.47 6.47 0 0 1-1.04.374 3.201 3.201 0 0 1-1.1.168c-.135 0-.275 0-.409-.022zm2.66-2.27h-2.66v-.832h1.698c0-.57-.134-1.006-.397-1.319-.268-.313-.66-.475-1.184-.475h-.118v-.883h.162c.8 0 1.42.257 1.856.766.441.503.642 1.218.642 2.146z" style="stroke-width:5.58848"/><path fill="none" stroke="#808285" stroke-width="0.519727" d="M173.71 110.397h-2.66v-.833h1.7c0-.57-.14-1.006-.397-1.319-.274-.313-.66-.475-1.185-.475h-.117v-.883h.156c.805 0 1.42.257 1.861.766.436.503.643 1.218.643 2.146zm-2.66 2.269c.135.028.275.028.403.028.397 0 .81-.073 1.218-.263.414-.168.7-.335.883-.503h.045v1.174a7.55 7.55 0 0 1-1.04.374c-.346.123-.709.168-1.106.168-.128 0-.268 0-.402-.022zm0-2.27h-1.704c0 .387.05.744.168 1.03.106.29.252.53.453.709.184.201.391.34.642.436.14.05.274.072.442.095v.956c-.782-.067-1.43-.364-1.878-.839-.553-.592-.832-1.408-.832-2.459 0-1.045.257-1.883.782-2.503a2.674 2.674 0 0 1 1.928-.934v.883a1.71 1.71 0 0 0-1.174.52c-.29.341-.48.766-.53 1.274h1.704z"/><path fill="#808285" d="M180.221 111.643c0 .57-.23 1.079-.665 1.43-.458.386-1.084.576-1.833.576a4.04 4.04 0 0 1-1.218-.168c-.37-.123-.665-.24-.911-.385v-1.19h.044c.325.234.665.452 1.045.592.397.173.76.246 1.107.246.458 0 .777-.073 1.034-.246.251-.14.363-.38.363-.715 0-.257-.061-.447-.184-.57-.129-.146-.392-.24-.777-.336-.14-.05-.324-.067-.56-.111-.223-.056-.43-.1-.608-.168-.526-.151-.894-.369-1.124-.654-.212-.285-.324-.637-.324-1.073 0-.257.045-.525.168-.738.078-.24.246-.452.447-.642.18-.174.442-.313.76-.408a2.775 2.775 0 0 1 1.017-.168c.364 0 .71.05 1.073.145.37.09.66.207.917.336v1.168h-.073a2.902 2.902 0 0 0-.916-.526 2.91 2.91 0 0 0-1.073-.212c-.364 0-.67.067-.917.229-.257.15-.374.385-.374.676 0 .263.078.453.24.592.134.14.358.24.704.336.18.05.397.095.626.14.218.021.403.072.57.122.459.123.8.308 1.056.598.252.29.386.643.386 1.124" style="stroke-width:5.58848"/><path fill="none" stroke="#808285" stroke-width="0.519727" d="M180.221 111.643c0 .57-.23 1.079-.665 1.43-.458.386-1.084.576-1.833.576a4.04 4.04 0 0 1-1.218-.168c-.37-.123-.665-.24-.911-.385v-1.19h.044c.325.234.665.452 1.045.592.397.173.76.246 1.107.246.458 0 .777-.073 1.034-.246.251-.14.363-.38.363-.715 0-.257-.061-.447-.184-.57-.129-.146-.392-.24-.777-.336-.14-.05-.324-.067-.56-.111-.223-.056-.43-.1-.608-.168-.526-.151-.894-.369-1.124-.654-.212-.285-.324-.637-.324-1.073 0-.257.045-.525.168-.738.078-.24.246-.452.447-.642.18-.174.442-.313.76-.408a2.775 2.775 0 0 1 1.017-.168c.364 0 .71.05 1.073.145.37.09.66.207.917.336v1.168h-.073a2.902 2.902 0 0 0-.916-.526 2.91 2.91 0 0 0-1.073-.212c-.364 0-.67.067-.917.229-.257.15-.374.385-.374.676 0 .263.078.453.24.592.134.14.358.24.704.336.18.05.397.095.626.14.218.021.403.072.57.122.459.123.8.308 1.056.598.252.29.386.643.386 1.124"/><path fill="#808285" d="M184.684 113.667c-.821 0-1.486-.307-1.989-.9-.48-.603-.732-1.43-.732-2.492 0-1.045.251-1.855.732-2.476.503-.598 1.168-.91 1.99-.91v.933c-.52 0-.934.212-1.224.598-.325.402-.464 1.022-.464 1.855 0 .816.14 1.42.464 1.839.29.413.704.626 1.223.626zm2.739-3.392c0 1.062-.24 1.889-.738 2.493-.475.592-1.14.9-2 .9v-.928c.53 0 .972-.213 1.268-.626.302-.397.464-1.023.464-1.839 0-.833-.162-1.453-.464-1.855-.296-.386-.715-.598-1.269-.598v-.934c.861 0 1.526.313 2.001.911.498.62.738 1.431.738 2.476" style="stroke-width:5.58848"/><path fill="none" stroke="#808285" stroke-width="0.519727" d="M187.422 110.277c0 1.056-.24 1.889-.738 2.486-.475.598-1.14.906-2 .906v-.928c.53 0 .972-.218 1.268-.626.302-.402.464-1.022.464-1.838 0-.833-.162-1.453-.464-1.856-.296-.385-.715-.598-1.269-.598v-.939c.861 0 1.526.319 2.001.911.497.626.738 1.431.738 2.482m-2.739 3.392c-.821 0-1.486-.308-1.99-.906-.48-.597-.737-1.43-.737-2.486 0-1.051.257-1.856.738-2.482a2.52 2.52 0 0 1 1.99-.91v.938c-.515 0-.934.213-1.225.598-.324.403-.469 1.023-.469 1.856 0 .816.145 1.414.47 1.838.29.408.71.626 1.223.626z"/><path fill="#808285" d="M194.638 113.507h-.984v-.721a4.66 4.66 0 0 1-.972.648 2.176 2.176 0 0 1-1.029.235c-.609 0-1.095-.207-1.442-.62-.335-.403-.525-.995-.525-1.811v-4.18h1.006v3.677c0 .313 0 .598.05.838.028.207.068.43.168.592.112.168.224.286.386.364.134.067.358.117.665.117.251 0 .525-.072.827-.218.313-.145.587-.33.866-.581v-4.79h.984z" style="stroke-width:5.58848"/><path fill="none" stroke="#808285" stroke-width="0.519727" d="M194.638 113.507h-.984v-.721a4.66 4.66 0 0 1-.972.648 2.176 2.176 0 0 1-1.029.235c-.609 0-1.095-.207-1.442-.62-.335-.403-.525-.995-.525-1.811v-4.18h1.006v3.677c0 .313 0 .598.05.838.028.207.068.43.168.592.112.168.224.286.386.364.134.067.358.117.665.117.251 0 .525-.072.827-.218.313-.145.587-.33.866-.581v-4.79h.984z"/><path fill="#808285" d="M201.062 108.252h-.05a4.389 4.389 0 0 0-.425-.095c-.14 0-.302-.022-.514-.022-.296 0-.598.072-.872.234-.29.146-.57.341-.822.554v4.582h-1.011v-6.449h1.011v.956c.38-.336.727-.593 1.034-.744.291-.134.615-.212.934-.212.156 0 .301.028.368.028.073 0 .185.022.347.05z" style="stroke-width:5.58848"/><path fill="none" stroke="#808285" stroke-width="0.519727" d="M201.062 108.252h-.05a4.389 4.389 0 0 0-.425-.095c-.14 0-.302-.022-.514-.022-.296 0-.598.072-.872.234-.29.146-.57.341-.822.554v4.582h-1.011v-6.449h1.011v.956c.38-.336.727-.593 1.034-.744.291-.134.615-.212.934-.212.156 0 .301.028.368.028.073 0 .185.022.347.05z"/><path fill="#808285" d="M207.138 113.099a7.42 7.42 0 0 1-.944.408c-.29.09-.615.14-.939.14-.436 0-.821-.073-1.19-.213-.341-.145-.665-.335-.917-.626a2.705 2.705 0 0 1-.592-1.05c-.145-.408-.207-.906-.207-1.481 0-1.051.274-1.856.8-2.454.525-.598 1.229-.91 2.106-.91.324 0 .665.055.99.167.346.095.642.213.893.38v1.196h-.05a3.739 3.739 0 0 0-.939-.598 2.209 2.209 0 0 0-.944-.218c-.56 0-1 .218-1.347.626-.324.43-.48 1.023-.48 1.81 0 .789.156 1.392.48 1.79.318.435.788.625 1.347.625.218 0 .419-.022.626-.073a3.16 3.16 0 0 0 .553-.234c.14-.073.274-.173.408-.246.14-.09.235-.185.296-.235h.05z" style="stroke-width:5.58848"/><path fill="none" stroke="#808285" stroke-width="0.519727" d="M207.138 113.099a7.42 7.42 0 0 1-.944.408c-.29.09-.615.14-.939.14-.436 0-.821-.073-1.19-.213-.341-.145-.665-.335-.917-.626a2.705 2.705 0 0 1-.592-1.05c-.145-.408-.207-.906-.207-1.481 0-1.051.274-1.856.8-2.454.525-.598 1.229-.91 2.106-.91.324 0 .665.055.99.167.346.095.642.213.893.38v1.196h-.05a3.739 3.739 0 0 0-.939-.598 2.209 2.209 0 0 0-.944-.218c-.56 0-1 .218-1.347.626-.324.43-.48 1.023-.48 1.81 0 .789.156 1.392.48 1.79.318.435.788.625 1.347.625.218 0 .419-.022.626-.073a3.16 3.16 0 0 0 .553-.234c.14-.073.274-.173.408-.246.14-.09.235-.185.296-.235h.05z"/><path fill="#808285" d="M211.47 110.397h-1.699c0 .386.073.743.184 1.028.096.29.258.531.43.71.19.201.42.34.671.436.14.05.28.072.414.095v.956c-.782-.067-1.397-.364-1.878-.839-.553-.592-.827-1.408-.827-2.459 0-1.045.274-1.883.794-2.503.491-.57 1.129-.889 1.91-.934v.883a1.699 1.699 0 0 0-1.145.52c-.313.341-.508.766-.553 1.274h1.699zm0 2.269c.134.022.28.022.414.022.408 0 .799-.067 1.212-.257.414-.162.721-.335.872-.503h.067v1.174a6.762 6.762 0 0 1-1.028.374 3.409 3.409 0 0 1-1.107.168c-.15 0-.296 0-.43-.022zm2.677-2.27h-2.677v-.832h1.688c0-.57-.134-1.006-.375-1.319-.257-.313-.648-.475-1.196-.475h-.117v-.883h.179c.805 0 1.397.257 1.839.766.435.503.659 1.218.659 2.146z" style="stroke-width:5.58848"/><path fill="none" stroke="#808285" stroke-width="0.519727" d="M214.147 110.397h-2.676v-.833h1.693c0-.57-.14-1.006-.38-1.319-.257-.313-.648-.475-1.196-.475h-.117v-.883h.178c.805 0 1.398.257 1.84.766.435.503.659 1.218.659 2.146zm-2.676 2.269c.134.028.279.028.413.028.408 0 .8-.073 1.207-.263.42-.168.727-.335.878-.503h.067v1.174c-.347.156-.693.28-1.029.374a3.432 3.432 0 0 1-1.106.168c-.151 0-.296 0-.43-.028zm0-2.27h-1.7c0 .387.073.744.185 1.03.09.29.257.53.43.709.185.201.42.34.671.436.14.05.28.072.414.095v.956c-.783-.067-1.397-.364-1.878-.839-.553-.592-.827-1.408-.827-2.459 0-1.045.274-1.883.793-2.503.487-.57 1.13-.889 1.912-.934v.883c-.453.023-.85.213-1.146.52-.318.341-.508.766-.553 1.274h1.699z"/><path fill="#808285" d="M222.108 110.277c-.129.022-.285.022-.459.022h-1.056v3.208h-1.05v-8.573h2.565v1c-.129-.022-.285-.022-.459-.022h-1.056v3.415h.894c.235 0 .442 0 .62-.023zm2.61-2.767c0 .38-.068.744-.18 1.051-.134.335-.301.62-.52.86a3.299 3.299 0 0 1-.966.671 3.53 3.53 0 0 1-.944.184v-.972c.162-.028.301-.078.413-.1.252-.096.48-.213.643-.403.168-.168.28-.363.34-.57.073-.196.118-.436.118-.693 0-.29-.045-.553-.14-.765a1.334 1.334 0 0 0-.43-.526 1.812 1.812 0 0 0-.598-.268 1.42 1.42 0 0 0-.346-.045v-1c.301.017.553.067.782.117.335.095.615.24.888.408.302.213.526.498.688.81.162.336.251.738.251 1.241" style="stroke-width:5.58848"/><path fill="none" stroke="#808285" stroke-width="0.519727" d="M224.718 107.512c0 .38-.067.743-.179 1.05-.134.336-.302.62-.52.855-.285.29-.603.509-.966.676-.263.09-.576.163-.945.185v-.973c.162-.028.302-.078.414-.1.251-.095.48-.213.642-.408.162-.162.28-.358.341-.565.073-.195.112-.435.112-.698 0-.285-.039-.548-.134-.766a1.309 1.309 0 0 0-.43-.52 1.754 1.754 0 0 0-.598-.268 1.243 1.243 0 0 0-.347-.044v-1c.302.017.559.06.782.11.341.101.615.247.889.414.307.213.525.492.682.81.168.33.257.738.257 1.241m-2.61 2.767c-.128.022-.285.022-.458.022h-1.056v3.208h-1.057v-8.573H222.108v1c-.128-.022-.285-.022-.458-.022h-1.056v3.415h.894c.229 0 .441 0 .62-.028z"/><path fill="#808285" d="M226.784 113.506h1.006v-8.959h-1.006z" style="stroke-width:5.58848"/><path fill="none" stroke="#808285" stroke-width="0.519727" d="M227.79 113.506h-1.006v-8.959h1.006z"/><path fill="#808285" d="M232.638 107.869h-.1a3.21 3.21 0 0 0-.872.111 6.458 6.458 0 0 0-.984.319h-.072v-1.095c.206-.056.486-.123.86-.196a5.343 5.343 0 0 1 1.068-.095h.1zm0 5.75c-.196.028-.391.05-.626.05-.525 0-.989-.19-1.358-.57-.385-.38-.57-.888-.57-1.48 0-.475.117-.855.302-1.174.184-.307.458-.548.821-.71a4.407 4.407 0 0 1 1.308-.357h.123v.877c-.24.022-.391.073-.559.117-.28.101-.536.23-.687.408-.185.19-.28.459-.28.766 0 .38.118.643.33.838.201.19.503.285.911.285.09 0 .184 0 .285-.028zm2.493-.111h-1.012v-.699c-.067.073-.196.14-.346.263-.157.128-.291.218-.43.29a1.814 1.814 0 0 1-.576.213c-.04.022-.09.022-.129.044v-.978c.246-.022.48-.089.682-.19.296-.162.576-.335.8-.547v-1.789c-.303.023-.638.05-1.052.101-.162.01-.301.01-.43.039v-.877c.447-.05.956-.1 1.481-.129v-.156c0-.268-.017-.458-.106-.626a.84.84 0 0 0-.352-.386c-.14-.067-.302-.145-.503-.173-.157-.017-.341-.039-.52-.039v-.956c.386 0 .704.05.995.124.307.067.581.19.81.374.224.173.386.413.509.67.106.286.179.649.179 1.051z" style="stroke-width:5.58848"/><path fill="none" stroke="#808285" stroke-width="0.519727" d="M235.13 113.507h-1.012v-.699c-.067.073-.196.145-.347.263-.15.128-.29.218-.43.285a1.689 1.689 0 0 1-.576.218c-.039.022-.089.022-.128.044v-.972c.246-.028.48-.095.682-.196.302-.167.575-.335.799-.547v-1.789c-.296.028-.637.05-1.05.095-.157.018-.302.018-.431.045v-.877c.447-.05.961-.1 1.48-.123v-.162c0-.269-.016-.459-.105-.626a.787.787 0 0 0-.352-.386 1.414 1.414 0 0 0-.498-.168 3.938 3.938 0 0 0-.525-.044v-.956c.386 0 .704.05.995.123.307.073.58.19.81.38.224.168.386.408.509.665.106.285.178.648.178 1.05zm-2.493.111c-.196.028-.391.05-.626.05-.525 0-.99-.184-1.352-.57-.386-.38-.576-.882-.576-1.48 0-.475.117-.855.302-1.168.184-.308.458-.553.821-.715a4.406 4.406 0 0 1 1.308-.358h.123v.877c-.24.022-.391.073-.559.123-.274.095-.536.218-.687.408-.185.185-.274.453-.274.76 0 .386.112.643.324.844.207.184.503.28.911.28.09 0 .184 0 .285-.023zm0-5.75h-.1c-.252 0-.554.022-.867.117a6.858 6.858 0 0 0-.989.308h-.073v-1.085c.207-.055.487-.123.861-.195.352-.079.727-.1 1.067-.1h.101z"/><path fill="#808285" d="M242.76 113.507h-1v-3.683c0-.285 0-.57-.045-.833a1.91 1.91 0 0 0-.167-.598.863.863 0 0 0-.392-.357c-.156-.079-.39-.123-.637-.123a1.94 1.94 0 0 0-.871.223c-.302.134-.576.33-.844.57v4.8h-1v-6.448h1v.715c.318-.263.631-.503.96-.643a2.33 2.33 0 0 1 1.03-.246c.636 0 1.123.224 1.469.626.319.425.497 1.029.497 1.817z" style="stroke-width:5.58848"/><path fill="none" stroke="#808285" stroke-width="0.519727" d="M242.76 113.507h-1v-3.683c0-.285 0-.57-.045-.833a1.91 1.91 0 0 0-.167-.598.863.863 0 0 0-.392-.357c-.156-.079-.39-.123-.637-.123a1.94 1.94 0 0 0-.871.223c-.302.134-.576.33-.844.57v4.8h-1v-6.448h1v.715c.318-.263.631-.503.96-.643a2.33 2.33 0 0 1 1.03-.246c.636 0 1.123.224 1.469.626.319.425.497 1.029.497 1.817z"/><path fill="#808285" d="M250.405 113.507h-1.017v-3.683c0-.285-.017-.57-.039-.833a1.537 1.537 0 0 0-.19-.598.67.67 0 0 0-.363-.357 1.521 1.521 0 0 0-.637-.123c-.28 0-.581.072-.866.223-.313.134-.576.33-.855.57v4.8h-.99v-6.448h.99v.715c.318-.263.642-.503.955-.643a2.353 2.353 0 0 1 1.034-.246c.643 0 1.124.224 1.47.626.319.425.509 1.029.509 1.817z" style="stroke-width:5.58848"/><path fill="none" stroke="#808285" stroke-width="0.519727" d="M250.405 113.507h-1.017v-3.683c0-.285-.017-.57-.039-.833a1.537 1.537 0 0 0-.19-.598.67.67 0 0 0-.363-.357 1.521 1.521 0 0 0-.637-.123c-.28 0-.581.072-.866.223-.313.134-.576.33-.855.57v4.8h-.99v-6.448h.99v.715c.318-.263.642-.503.955-.643a2.353 2.353 0 0 1 1.034-.246c.643 0 1.124.224 1.47.626.319.425.509 1.029.509 1.817z"/><path fill="#808285" d="M253 105.978h1.129v-1.123h-1.13zm.072 7.528h1v-6.455h-1z" style="stroke-width:5.58848"/><path fill="none" stroke="#808285" stroke-width="0.519727" d="M254.136 105.982h-1.13v-1.123h1.13zm-.056 7.522h-1.012v-6.444h1.012z"/><path fill="#808285" d="M261.772 113.507h-1.012v-3.683c0-.285 0-.57-.044-.833a2.1 2.1 0 0 0-.157-.598.91.91 0 0 0-.385-.357 1.576 1.576 0 0 0-.649-.123c-.268 0-.553.072-.849.223-.29.134-.598.33-.872.57v4.8h-.983v-6.448h.983v.715c.324-.263.643-.503.967-.643a2.33 2.33 0 0 1 1.028-.246c.637 0 1.13.224 1.47.626.34.425.503 1.029.503 1.817z" style="stroke-width:5.58848"/><path fill="none" stroke="#808285" stroke-width="0.519727" d="M261.772 113.507h-1.012v-3.683c0-.285 0-.57-.044-.833a2.1 2.1 0 0 0-.157-.598.91.91 0 0 0-.385-.357 1.576 1.576 0 0 0-.649-.123c-.268 0-.553.072-.849.223-.29.134-.598.33-.872.57v4.8h-.983v-6.448h.983v.715c.324-.263.643-.503.967-.643a2.33 2.33 0 0 1 1.028-.246c.637 0 1.13.224 1.47.626.34.425.503 1.029.503 1.817z"/><path fill="#808285" d="M266.648 113.384h-.29c-.722 0-1.286-.257-1.694-.81-.42-.57-.62-1.336-.62-2.359 0-.553.072-1.034.2-1.414.163-.408.347-.765.599-1.056.229-.257.503-.475.821-.615a2.22 2.22 0 0 1 .984-.246v.984c-.453.04-.827.24-1.118.598-.296.38-.458.972-.458 1.716 0 .743.117 1.29.34 1.648.224.38.627.554 1.169.554h.067zm0 2.531h-.18c-.312 0-.614-.028-.921-.067-.296-.05-.587-.094-.883-.2v-1.09h.039c.184.072.436.14.777.229.374.128.715.178 1.067.178h.1zm2.593-3.146c0 1.09-.224 1.883-.66 2.38-.435.476-1.09.738-1.933.766v-.95c.302-.022.553-.078.743-.15.224-.068.38-.213.52-.358.117-.14.212-.336.262-.548.062-.218.09-.453.09-.71v-.58c-.302.262-.61.452-.872.58a2.26 2.26 0 0 1-.743.185v-1c.274 0 .53-.073.805-.174.301-.112.553-.285.81-.475v-3.504c-.285-.15-.509-.218-.738-.296a3.625 3.625 0 0 0-.687-.067h-.19v-.984c.352 0 .642.05.877.123.23.073.48.196.738.336l.061-.285h.917z" style="stroke-width:5.58848"/><path fill="none" stroke="#808285" stroke-width="0.519727" d="M269.24 112.766c0 1.096-.223 1.89-.659 2.387-.435.475-1.084.737-1.933.765v-.955c.302-.023.559-.073.743-.151.224-.067.38-.207.52-.358.123-.134.212-.33.257-.548.067-.212.095-.447.095-.71v-.58c-.302.268-.61.452-.872.58a2.133 2.133 0 0 1-.743.185v-.995c.28 0 .53-.078.805-.173.307-.117.553-.285.81-.48v-3.499a4.01 4.01 0 0 0-.732-.296 3.314 3.314 0 0 0-.693-.073h-.19v-.978c.352 0 .643.05.883.118.229.078.475.2.732.34l.067-.284h.911zm-2.587 3.152h-.184c-.313 0-.615-.028-.916-.072a4.959 4.959 0 0 1-.889-.196v-1.095h.045c.179.078.43.145.77.234.375.123.716.173 1.068.173h.107zm0-2.537h-.296c-.72 0-1.285-.257-1.693-.81-.42-.57-.62-1.33-.62-2.359 0-.553.072-1.034.2-1.414.163-.407.347-.76.599-1.056.229-.251.503-.475.821-.609.347-.168.665-.246.99-.246v.984a1.56 1.56 0 0 0-1.124.592c-.296.386-.458.978-.458 1.721 0 .738.117 1.286.34 1.643.224.386.627.56 1.169.56h.072z"/><path fill="#0072bc" d="M328.366 33.447h.615c.754 0 1.117.218 1.117.743 0 .503-.34.715-1.084.715h-.648zm-1-.632v4.656h1v-1.94h.726l.911 1.94h1.118l-1.028-2.096c.66-.157 1.028-.626 1.028-1.291 0-.822-.654-1.269-1.962-1.269zm1.698-1.134c.973 0 1.839.369 2.526 1.056.665.676 1.023 1.543 1.023 2.537 0 .928-.38 1.805-1.04 2.448a3.606 3.606 0 0 1-2.57 1.028c-.894 0-1.772-.38-2.448-1.056a3.439 3.439 0 0 1-1.028-2.476c0-.933.374-1.821 1.073-2.531.66-.665 1.498-1.006 2.464-1.006m-.012-.61c-1.123 0-2.113.398-2.895 1.191-.805.8-1.257 1.855-1.257 2.956s.43 2.107 1.207 2.906c.799.81 1.85 1.258 2.945 1.258 1.079 0 2.124-.43 2.94-1.23.787-.765 1.218-1.782 1.218-2.934 0-1.112-.414-2.129-1.185-2.906-.8-.821-1.839-1.24-2.973-1.24" style="stroke-width:5.58848"/><path fill="#ed1c24" d="M161.913 24.858h-18.957L122.804 0h18.957z" style="stroke-width:5.58848"/><path fill="#0072bc" d="M114.587 81.681V70.063h43.138v-13.53h-43.138V45.071h44.406l-10.713-13.58H94.318v63.731h63.407v-13.54ZM222.947 72.543c21.912 0 19.61-21.471 19.61-21.471 0-20.934-20.348-19.582-20.348-19.582h-54.733l19.448 24.561V44.92h27.456s6.868-.732 6.868 7.813c0 0-.436 7.555-6.56 7.555h-24.534l27.976 34.934h23.041zm-55.79 22.678h19.767V80.294l-19.767-24.958ZM297.624 60.253h-26.887V44.918h26.574s6.873-.81 6.873 7.813c0 0-.313 7.522-6.56 7.522m27.864-9.176c0-20.426-20.348-19.582-20.348-19.582h-54.929V95.22h20.526V72.537h34.515c22.23 0 20.236-21.46 20.236-21.46" style="stroke-width:5.58848"/><path fill="#231f20" d="M172.683 138.202h-5.203v9.696h27.193v-4.241h-21.99zm21.99-16.475h-5.197v10.434h-3.359v-10.434h-20.95v4.253h15.748v6.181h-4.902v-4.113h-5.202v4.113h-6.321v4.314h25.03v3.331h5.153v-10.44h4.426v-4.252h-4.426zm32.67 13.726h-19.341v-2.733h14.697v-10.993H202.81v4.22h14.731v2.755h-14.73v11.06h24.533v4.766h5.163v-22.8h-5.163zm-80.289 1.492h11.669v-15.218h-5.203v3.862h-18.56v-3.862h-5.191v15.218h11.736v3.99h-12.949v4.247h31.446v-4.247h-12.948zm6.466-4.253h-18.56v-2.856h18.56zm113.055-6.153v-4.795h-5.198v11.915L249.1 121.727h-4.945l-8.132 16.157 4.8 2.151 6.176-13.278 14.38 13.804v3.967h5.197v-13.736h4.42v-4.253zm-147.123-1.196h-4.442v4.259h4.442v4.532c-1.453-.822-3.101-1.24-4.934-1.274l-5.678-6.88h4.65v-4.253H94.165v4.253h5.398l-5.862 7.6 4.353 1.929 6.075-8.372.022.017 5.32 6.846c-.704.363-1.369.81-1.984 1.358-1.855 1.688-2.777 3.717-2.777 6.086 0 2.375.922 4.393 2.777 6.058 1.873 1.665 4.158 2.498 6.852 2.498 2.671 0 4.946-.833 6.823-2.498 1.906-1.665 2.856-3.683 2.856-6.058 0-2.37-.95-4.398-2.856-6.086-.257-.223-.508-.43-.776-.626h4.23v-13.004h-5.164zm-2.067 18.839c-.85.754-1.861 1.123-3.04 1.123-1.208 0-2.236-.369-3.08-1.123-.843-.777-1.257-1.688-1.257-2.738 0-1.073.414-1.99 1.257-2.733.844-.744 1.872-1.118 3.08-1.118 1.179 0 2.19.374 3.04 1.118.827.743 1.257 1.66 1.257 2.733 0 1.05-.43 1.961-1.257 2.738" style="stroke-width:5.58848"/></svg>